<svg width="4764" height="3155" viewBox="0 0 4764 3155" fill="none" xmlns="http://www.w3.org/2000/svg">
<g clip-path="url(#clip0_98_10)">
<rect width="4764" height="3155" fill="white"/>
<g opacity="0.2" filter="url(#filter0_f_98_10)">
<rect x="-170" y="0.5" width="4935" height="297" fill="url(#paint0_linear_98_10)"/>
</g>
<rect x="-170" y="0.5" width="4935" height="1947" fill="url(#paint1_linear_98_10)"/>
<path d="M5115.36 1934.84C5115.36 2154.19 3835.74 2040.29 3005.94 2040.29C2180.73 2040.29 -73.3414 1917.95 630.461 1823.21C637.573 1822.25 645.902 1819.5 652.016 1815.74C1555.56 1260.27 1989.41 1913.85 2785.29 1707.84C2788.69 1706.96 2792.19 1705.63 2795.32 1704.05C4288.78 952.742 5115.36 1715.73 5115.36 1934.84Z" fill="white"/>
<path d="M1414.37 1982.67C1414.37 2175.36 843.957 2167.55 -120 2201.33C-28.1208 2228.02 -232.5 2082.83 -232.5 1890.14C-232.5 1697.45 -200.886 1720.4 -251 1556.66C124.332 2275.5 1842 996.019 1414.37 1982.67Z" fill="white"/>
<path d="M1532.94 1006.16C1512.04 1006.16 1493.93 1001.72 1478.59 992.832C1463.36 983.945 1451.59 971.348 1443.29 955.039C1435.09 938.633 1430.99 919.248 1430.99 896.885V896.592C1430.99 874.131 1435.14 854.746 1443.44 838.438C1451.74 822.129 1463.51 809.58 1478.74 800.791C1494.07 791.904 1512.14 787.461 1532.94 787.461C1553.84 787.461 1571.9 791.904 1587.14 800.791C1602.37 809.678 1614.14 822.275 1622.44 838.584C1630.74 854.795 1634.89 874.131 1634.89 896.592V896.885C1634.89 919.248 1630.74 938.633 1622.44 955.039C1614.14 971.348 1602.37 983.945 1587.14 992.832C1572 1001.72 1553.94 1006.16 1532.94 1006.16ZM1532.94 968.662C1544.66 968.662 1554.77 965.732 1563.26 959.873C1571.76 953.916 1578.3 945.566 1582.89 934.824C1587.48 924.082 1589.78 911.436 1589.78 896.885V896.592C1589.78 881.846 1587.43 869.15 1582.74 858.506C1578.15 847.764 1571.56 839.512 1562.97 833.75C1554.47 827.891 1544.46 824.961 1532.94 824.961C1521.42 824.961 1511.36 827.842 1502.76 833.604C1494.27 839.365 1487.68 847.617 1482.99 858.359C1478.4 869.004 1476.1 881.748 1476.1 896.592V896.885C1476.1 911.533 1478.4 924.229 1482.99 934.971C1487.68 945.713 1494.27 954.014 1502.76 959.873C1511.26 965.732 1521.32 968.662 1532.94 968.662ZM1713.26 1005.72C1701.74 1005.72 1691.92 1003.38 1683.82 998.691C1675.81 993.906 1669.66 987.119 1665.36 978.33C1661.16 969.541 1659.06 959.043 1659.06 946.836V845.469H1701.84V937.9C1701.84 948.154 1704.23 956.113 1709.01 961.777C1713.9 967.441 1721.12 970.273 1730.69 970.273C1735.48 970.273 1739.78 969.443 1743.58 967.783C1747.49 966.123 1750.81 963.779 1753.54 960.752C1756.28 957.627 1758.38 953.965 1759.84 949.766C1761.31 945.469 1762.04 940.781 1762.04 935.703V845.469H1804.81V1002.5H1762.04V976.572H1761.16C1758.43 982.529 1754.81 987.705 1750.32 992.1C1745.93 996.494 1740.61 999.863 1734.36 1002.21C1728.2 1004.55 1721.17 1005.72 1713.26 1005.72ZM1832.65 1002.5V845.469H1875.42V872.861H1876.3C1878.64 863.193 1882.89 855.674 1889.04 850.303C1895.2 844.932 1902.86 842.246 1912.04 842.246C1914.38 842.246 1916.63 842.393 1918.78 842.686C1920.93 842.979 1922.78 843.369 1924.35 843.857V881.504C1922.59 880.82 1920.34 880.283 1917.61 879.893C1914.87 879.404 1911.94 879.16 1908.82 879.16C1901.79 879.16 1895.78 880.527 1890.8 883.262C1885.82 885.996 1882.01 890 1879.38 895.273C1876.74 900.547 1875.42 906.992 1875.42 914.609V1002.5H1832.65ZM2082.26 1006.16C2065.56 1006.16 2050.96 1003.72 2038.46 998.838C2026.05 993.857 2016.29 986.777 2009.16 977.598C2002.03 968.32 1998.03 957.188 1997.15 944.199L1997 941.855H2038.75L2039.04 943.467C2040.02 948.936 2042.46 953.672 2046.37 957.676C2050.37 961.582 2055.55 964.658 2061.89 966.904C2068.24 969.053 2075.42 970.127 2083.43 970.127C2091.63 970.127 2098.66 969.053 2104.52 966.904C2110.48 964.658 2115.07 961.533 2118.29 957.529C2121.61 953.428 2123.27 948.691 2123.27 943.32V943.174C2123.27 936.045 2120.44 930.479 2114.78 926.475C2109.21 922.373 2099.83 918.955 2086.65 916.221L2064.38 911.826C2043.58 907.627 2027.91 900.547 2017.36 890.586C2006.82 880.625 2001.54 867.686 2001.54 851.768V851.621C2001.54 838.73 2005.01 827.5 2011.94 817.93C2018.88 808.262 2028.4 800.791 2040.51 795.518C2052.62 790.146 2066.48 787.461 2082.11 787.461C2098.42 787.461 2112.48 790 2124.3 795.078C2136.21 800.156 2145.49 807.334 2152.13 816.611C2158.77 825.889 2162.43 836.68 2163.12 848.984L2163.26 851.768H2121.51L2121.37 850.01C2120.59 844.443 2118.49 839.707 2115.07 835.801C2111.65 831.797 2107.11 828.721 2101.45 826.572C2095.88 824.424 2089.43 823.35 2082.11 823.35C2074.59 823.35 2068.1 824.473 2062.63 826.719C2057.16 828.867 2052.96 831.846 2050.03 835.654C2047.2 839.463 2045.78 843.906 2045.78 848.984V849.131C2045.78 855.771 2048.61 861.143 2054.28 865.244C2059.94 869.346 2068.83 872.617 2080.94 875.059L2103.35 879.6C2118.1 882.529 2130.21 886.582 2139.68 891.758C2149.15 896.934 2156.13 903.477 2160.62 911.387C2165.21 919.199 2167.51 928.623 2167.51 939.658V939.805C2167.51 953.379 2164.09 965.146 2157.26 975.107C2150.52 984.971 2140.75 992.637 2127.96 998.105C2115.26 1003.48 2100.03 1006.16 2082.26 1006.16ZM2262.43 1005.72C2246.42 1005.72 2232.65 1002.45 2221.12 995.908C2209.6 989.268 2200.71 979.844 2194.46 967.637C2188.31 955.43 2185.23 940.977 2185.23 924.277V924.131C2185.23 907.432 2188.31 892.979 2194.46 880.771C2200.71 868.467 2209.45 858.994 2220.68 852.354C2232.01 845.615 2245.34 842.246 2260.67 842.246C2276.01 842.246 2289.24 845.518 2300.37 852.061C2311.6 858.506 2320.24 867.637 2326.3 879.453C2332.45 891.27 2335.53 905.088 2335.53 920.908V934.092H2206.18V907.139H2315.31L2294.95 932.334V915.928C2294.95 906.748 2293.54 899.082 2290.7 892.93C2287.87 886.68 2283.92 881.992 2278.84 878.867C2273.86 875.742 2268.05 874.18 2261.41 874.18C2254.77 874.18 2248.86 875.791 2243.68 879.014C2238.6 882.236 2234.6 886.973 2231.67 893.223C2228.84 899.375 2227.42 906.943 2227.42 915.928V932.48C2227.42 941.172 2228.84 948.594 2231.67 954.746C2234.6 960.898 2238.75 965.635 2244.12 968.955C2249.49 972.178 2255.89 973.789 2263.31 973.789C2269.17 973.789 2274.25 972.861 2278.54 971.006C2282.84 969.15 2286.36 966.807 2289.09 963.975C2291.83 961.143 2293.68 958.262 2294.66 955.332L2294.95 954.453H2334.21L2333.77 956.064C2332.6 961.826 2330.3 967.637 2326.88 973.496C2323.47 979.355 2318.83 984.727 2312.97 989.609C2307.21 994.492 2300.13 998.398 2291.73 1001.33C2283.43 1004.26 2273.66 1005.72 2262.43 1005.72ZM2357.65 1002.5V845.469H2400.42V872.861H2401.3C2403.64 863.193 2407.89 855.674 2414.04 850.303C2420.2 844.932 2427.86 842.246 2437.04 842.246C2439.38 842.246 2441.63 842.393 2443.78 842.686C2445.93 842.979 2447.78 843.369 2449.35 843.857V881.504C2447.59 880.82 2445.34 880.283 2442.61 879.893C2439.87 879.404 2436.94 879.16 2433.82 879.16C2426.79 879.16 2420.78 880.527 2415.8 883.262C2410.82 885.996 2407.01 890 2404.38 895.273C2401.74 900.547 2400.42 906.992 2400.42 914.609V1002.5H2357.65ZM2513.65 1002.5L2459.31 845.469H2505.01L2537.82 964.707H2538.7L2571.07 845.469H2615.75L2561.85 1002.5H2513.65ZM2631.57 1002.5V845.469H2674.35V1002.5H2631.57ZM2652.96 825.254C2646.51 825.254 2641.09 823.057 2636.7 818.662C2632.3 814.268 2630.11 809.043 2630.11 802.988C2630.11 796.836 2632.3 791.611 2636.7 787.314C2641.09 782.92 2646.51 780.723 2652.96 780.723C2659.4 780.723 2664.82 782.92 2669.22 787.314C2673.61 791.611 2675.81 796.836 2675.81 802.988C2675.81 809.043 2673.61 814.268 2669.22 818.662C2664.82 823.057 2659.4 825.254 2652.96 825.254ZM2774.83 1005.72C2758.92 1005.72 2745.15 1002.4 2733.53 995.762C2721.9 989.121 2712.97 979.697 2706.72 967.49C2700.47 955.186 2697.34 940.635 2697.34 923.838V923.691C2697.34 906.895 2700.47 892.441 2706.72 880.332C2713.07 868.125 2722 858.75 2733.53 852.207C2745.15 845.566 2758.77 842.246 2774.39 842.246C2788.65 842.246 2801.01 844.932 2811.46 850.303C2821.9 855.576 2830.06 862.754 2835.92 871.836C2841.88 880.918 2845.15 891.123 2845.73 902.451V903.477H2806.04L2805.74 902.158C2804.47 894.639 2801.25 888.389 2796.07 883.408C2790.9 878.33 2783.87 875.791 2774.98 875.791C2768.05 875.791 2761.99 877.744 2756.82 881.65C2751.74 885.459 2747.78 890.977 2744.95 898.203C2742.22 905.332 2740.85 913.877 2740.85 923.838V923.984C2740.85 934.238 2742.22 942.979 2744.95 950.205C2747.78 957.334 2751.74 962.803 2756.82 966.611C2761.99 970.322 2768.1 972.178 2775.13 972.178C2783.72 972.178 2790.61 969.785 2795.78 965C2801.05 960.117 2804.42 953.721 2805.89 945.811L2806.04 944.492H2845.88V945.371C2845.2 956.797 2841.88 967.051 2835.92 976.133C2829.96 985.215 2821.76 992.441 2811.31 997.812C2800.96 1003.09 2788.8 1005.72 2774.83 1005.72ZM2938.02 1005.72C2922 1005.72 2908.23 1002.45 2896.71 995.908C2885.19 989.268 2876.3 979.844 2870.05 967.637C2863.9 955.43 2860.82 940.977 2860.82 924.277V924.131C2860.82 907.432 2863.9 892.979 2870.05 880.771C2876.3 868.467 2885.04 858.994 2896.27 852.354C2907.6 845.615 2920.93 842.246 2936.26 842.246C2951.59 842.246 2964.82 845.518 2975.96 852.061C2987.19 858.506 2995.83 867.637 3001.88 879.453C3008.04 891.27 3011.11 905.088 3011.11 920.908V934.092H2881.77V907.139H2990.9L2970.54 932.334V915.928C2970.54 906.748 2969.12 899.082 2966.29 892.93C2963.46 886.68 2959.5 881.992 2954.42 878.867C2949.44 875.742 2943.63 874.18 2936.99 874.18C2930.35 874.18 2924.44 875.791 2919.27 879.014C2914.19 882.236 2910.19 886.973 2907.26 893.223C2904.42 899.375 2903.01 906.943 2903.01 915.928V932.48C2903.01 941.172 2904.42 948.594 2907.26 954.746C2910.19 960.898 2914.34 965.635 2919.71 968.955C2925.08 972.178 2931.47 973.789 2938.9 973.789C2944.76 973.789 2949.83 972.861 2954.13 971.006C2958.43 969.15 2961.94 966.807 2964.68 963.975C2967.41 961.143 2969.27 958.262 2970.24 955.332L2970.54 954.453H3009.79L3009.36 956.064C3008.18 961.826 3005.89 967.637 3002.47 973.496C2999.05 979.355 2994.41 984.727 2988.55 989.609C2982.79 994.492 2975.71 998.398 2967.31 1001.33C2959.01 1004.26 2949.25 1005.72 2938.02 1005.72ZM3097.83 1005.72C3083.38 1005.72 3071.07 1003.62 3060.92 999.424C3050.76 995.225 3042.8 989.414 3037.04 981.992C3031.38 974.473 3027.96 965.781 3026.79 955.918L3026.64 954.6H3068.39L3068.68 955.918C3070.05 962.07 3073.12 966.855 3077.91 970.273C3082.7 973.691 3089.34 975.4 3097.83 975.4C3103.3 975.4 3107.94 974.766 3111.75 973.496C3115.56 972.129 3118.49 970.225 3120.54 967.783C3122.69 965.342 3123.76 962.412 3123.76 958.994V958.848C3123.76 954.648 3122.25 951.279 3119.22 948.74C3116.19 946.201 3110.82 944.053 3103.11 942.295L3076.45 936.729C3066.29 934.58 3057.79 931.504 3050.96 927.5C3044.22 923.398 3039.14 918.369 3035.72 912.412C3032.3 906.357 3030.6 899.424 3030.6 891.611V891.465C3030.6 881.406 3033.28 872.715 3038.65 865.391C3044.02 858.066 3051.64 852.402 3061.5 848.398C3071.46 844.297 3083.09 842.246 3096.37 842.246C3110.23 842.246 3122 844.492 3131.67 848.984C3141.44 853.379 3148.91 859.336 3154.08 866.855C3159.36 874.375 3162.14 882.725 3162.43 891.904V893.369H3123.03L3122.88 892.197C3122.2 886.533 3119.56 881.846 3114.97 878.135C3110.48 874.326 3104.28 872.422 3096.37 872.422C3091.48 872.422 3087.24 873.105 3083.62 874.473C3080.01 875.84 3077.23 877.793 3075.27 880.332C3073.32 882.773 3072.34 885.703 3072.34 889.121V889.268C3072.34 891.904 3072.98 894.297 3074.25 896.445C3075.62 898.496 3077.86 900.303 3080.99 901.865C3084.11 903.428 3088.31 904.795 3093.58 905.967L3120.24 911.68C3136.75 915.098 3148.56 920.225 3155.69 927.061C3162.92 933.896 3166.53 943.076 3166.53 954.6V954.746C3166.53 965 3163.6 973.936 3157.74 981.553C3151.88 989.17 3143.78 995.127 3133.43 999.424C3123.17 1003.62 3111.31 1005.72 3097.83 1005.72Z" fill="white"/>
<path opacity="0.2" d="M-151 0H4784V297H-151V0Z" fill="white"/>
<path d="M314.082 219.5V78.582H343.574V195.184H405.195V219.5H314.082ZM466.914 221.648C456.302 221.648 447.122 219.467 439.375 215.105C431.628 210.743 425.638 204.493 421.406 196.355C417.174 188.217 415.059 178.484 415.059 167.156V166.961C415.059 155.698 417.207 146.03 421.504 137.957C425.801 129.819 431.823 123.569 439.57 119.207C447.318 114.845 456.4 112.664 466.816 112.664C477.298 112.664 486.413 114.845 494.16 119.207C501.973 123.504 508.027 129.721 512.324 137.859C516.621 145.932 518.77 155.633 518.77 166.961V167.156C518.77 178.549 516.621 188.315 512.324 196.453C508.092 204.591 502.103 210.841 494.355 215.203C486.608 219.5 477.461 221.648 466.914 221.648ZM467.012 199.285C471.634 199.285 475.638 198.048 479.023 195.574C482.474 193.035 485.111 189.389 486.934 184.637C488.822 179.819 489.766 173.992 489.766 167.156V166.961C489.766 160.19 488.822 154.428 486.934 149.676C485.046 144.923 482.376 141.31 478.926 138.836C475.475 136.297 471.439 135.027 466.816 135.027C462.259 135.027 458.255 136.297 454.805 138.836C451.419 141.31 448.783 144.923 446.895 149.676C445.007 154.428 444.062 160.19 444.062 166.961V167.156C444.062 173.992 444.974 179.819 446.797 184.637C448.685 189.389 451.354 193.035 454.805 195.574C458.255 198.048 462.324 199.285 467.012 199.285ZM582.441 255.828C572.871 255.828 564.505 254.493 557.344 251.824C550.247 249.22 544.583 245.672 540.352 241.18C536.185 236.688 533.646 231.642 532.734 226.043L532.637 225.164H560.371L560.664 225.848C561.836 228.387 564.277 230.633 567.988 232.586C571.699 234.539 576.517 235.516 582.441 235.516C589.798 235.516 595.397 233.758 599.238 230.242C603.079 226.727 605 222.039 605 216.18V200.164H604.414C602.591 203.81 600.117 206.967 596.992 209.637C593.867 212.306 590.189 214.389 585.957 215.887C581.79 217.319 577.168 218.035 572.09 218.035C563.366 218.035 555.814 215.952 549.434 211.785C543.118 207.618 538.236 201.661 534.785 193.914C531.4 186.102 529.707 176.792 529.707 165.984V165.887C529.707 154.754 531.432 145.216 534.883 137.273C538.398 129.331 543.346 123.243 549.727 119.012C556.107 114.78 563.724 112.664 572.578 112.664C577.526 112.664 582.051 113.478 586.152 115.105C590.254 116.733 593.835 119.044 596.895 122.039C600.02 125.034 602.526 128.582 604.414 132.684H605V114.812H633.516V216.57C633.516 224.318 631.432 231.121 627.266 236.98C623.164 242.905 617.272 247.527 609.59 250.848C601.973 254.168 592.923 255.828 582.441 255.828ZM581.953 197.137C586.641 197.137 590.71 195.9 594.16 193.426C597.611 190.952 600.28 187.436 602.168 182.879C604.121 178.322 605.098 172.918 605.098 166.668V166.57C605.098 160.32 604.121 154.949 602.168 150.457C600.28 145.9 597.578 142.417 594.062 140.008C590.612 137.534 586.576 136.297 581.953 136.297C577.266 136.297 573.164 137.534 569.648 140.008C566.133 142.417 563.431 145.867 561.543 150.359C559.655 154.852 558.711 160.255 558.711 166.57V166.668C558.711 172.918 559.655 178.322 561.543 182.879C563.431 187.436 566.133 190.952 569.648 193.426C573.164 195.9 577.266 197.137 581.953 197.137ZM700.312 221.648C689.701 221.648 680.521 219.467 672.773 215.105C665.026 210.743 659.036 204.493 654.805 196.355C650.573 188.217 648.457 178.484 648.457 167.156V166.961C648.457 155.698 650.605 146.03 654.902 137.957C659.199 129.819 665.221 123.569 672.969 119.207C680.716 114.845 689.798 112.664 700.215 112.664C710.697 112.664 719.811 114.845 727.559 119.207C735.371 123.504 741.426 129.721 745.723 137.859C750.02 145.932 752.168 155.633 752.168 166.961V167.156C752.168 178.549 750.02 188.315 745.723 196.453C741.491 204.591 735.501 210.841 727.754 215.203C720.007 219.5 710.859 221.648 700.312 221.648ZM700.41 199.285C705.033 199.285 709.036 198.048 712.422 195.574C715.872 193.035 718.509 189.389 720.332 184.637C722.22 179.819 723.164 173.992 723.164 167.156V166.961C723.164 160.19 722.22 154.428 720.332 149.676C718.444 144.923 715.775 141.31 712.324 138.836C708.874 136.297 704.837 135.027 700.215 135.027C695.658 135.027 691.654 136.297 688.203 138.836C684.818 141.31 682.181 144.923 680.293 149.676C678.405 154.428 677.461 160.19 677.461 166.961V167.156C677.461 173.992 678.372 179.819 680.195 184.637C682.083 189.389 684.753 193.035 688.203 195.574C691.654 198.048 695.723 199.285 700.41 199.285Z" fill="white"/>
<path d="M2347.67 184.5L2372.28 114.041H2385.27V127.713H2380.78L2363.15 184.5H2347.67ZM2360.9 167.41L2364.52 156.375H2397.38L2400.99 167.41H2360.9ZM2398.7 184.5L2381.07 127.713V114.041H2389.61L2414.17 184.5H2398.7ZM2451.19 185.574C2448.68 185.574 2446.38 185.167 2444.3 184.354C2442.22 183.54 2440.39 182.4 2438.83 180.936C2437.27 179.438 2436.02 177.648 2435.07 175.564H2434.78V184.5H2420.52V114.041H2434.78V141.238H2435.07C2436.05 139.122 2437.32 137.316 2438.88 135.818C2440.44 134.288 2442.27 133.117 2444.35 132.303C2446.47 131.489 2448.76 131.082 2451.23 131.082C2455.63 131.082 2459.4 132.173 2462.56 134.354C2465.75 136.502 2468.21 139.611 2469.94 143.68C2471.66 147.716 2472.52 152.583 2472.52 158.279V158.328C2472.52 163.992 2471.66 168.859 2469.94 172.928C2468.21 176.997 2465.75 180.122 2462.56 182.303C2459.37 184.484 2455.58 185.574 2451.19 185.574ZM2446.45 173.758C2448.83 173.758 2450.88 173.139 2452.6 171.902C2454.33 170.633 2455.66 168.842 2456.61 166.531C2457.55 164.22 2458.02 161.486 2458.02 158.328V158.279C2458.02 155.089 2457.55 152.355 2456.61 150.076C2455.66 147.765 2454.31 145.991 2452.55 144.754C2450.83 143.517 2448.79 142.898 2446.45 142.898C2444.14 142.898 2442.1 143.533 2440.35 144.803C2438.62 146.04 2437.25 147.814 2436.24 150.125C2435.27 152.404 2434.78 155.122 2434.78 158.279V158.328C2434.78 161.486 2435.27 164.22 2436.24 166.531C2437.22 168.842 2438.59 170.633 2440.35 171.902C2442.1 173.139 2444.14 173.758 2446.45 173.758ZM2503.87 185.574C2498.57 185.574 2493.98 184.484 2490.1 182.303C2486.23 180.122 2483.23 176.997 2481.12 172.928C2479 168.859 2477.94 163.992 2477.94 158.328V158.23C2477.94 152.599 2479.02 147.765 2481.17 143.729C2483.31 139.66 2486.33 136.535 2490.2 134.354C2494.07 132.173 2498.61 131.082 2503.82 131.082C2509.06 131.082 2513.62 132.173 2517.49 134.354C2521.4 136.502 2524.43 139.611 2526.58 143.68C2528.72 147.716 2529.8 152.566 2529.8 158.23V158.328C2529.8 164.025 2528.72 168.908 2526.58 172.977C2524.46 177.046 2521.47 180.171 2517.59 182.352C2513.72 184.5 2509.14 185.574 2503.87 185.574ZM2503.92 174.393C2506.23 174.393 2508.23 173.774 2509.93 172.537C2511.65 171.268 2512.97 169.445 2513.88 167.068C2514.82 164.66 2515.3 161.746 2515.3 158.328V158.23C2515.3 154.845 2514.82 151.964 2513.88 149.588C2512.94 147.212 2511.6 145.405 2509.88 144.168C2508.15 142.898 2506.13 142.264 2503.82 142.264C2501.54 142.264 2499.54 142.898 2497.82 144.168C2496.12 145.405 2494.81 147.212 2493.86 149.588C2492.92 151.964 2492.45 154.845 2492.45 158.23V158.328C2492.45 161.746 2492.9 164.66 2493.81 167.068C2494.76 169.445 2496.09 171.268 2497.82 172.537C2499.54 173.774 2501.58 174.393 2503.92 174.393ZM2554.99 185.574C2551.15 185.574 2547.88 184.793 2545.18 183.23C2542.51 181.635 2540.46 179.373 2539.03 176.443C2537.63 173.514 2536.93 170.014 2536.93 165.945V132.156H2551.19V162.967C2551.19 166.385 2551.98 169.038 2553.58 170.926C2555.21 172.814 2557.61 173.758 2560.8 173.758C2562.4 173.758 2563.83 173.481 2565.1 172.928C2566.4 172.374 2567.51 171.593 2568.42 170.584C2569.33 169.542 2570.03 168.322 2570.52 166.922C2571.01 165.49 2571.25 163.927 2571.25 162.234V132.156H2585.51V184.5H2571.25V175.857H2570.96C2570.05 177.843 2568.85 179.568 2567.35 181.033C2565.88 182.498 2564.11 183.621 2562.03 184.402C2559.97 185.184 2557.63 185.574 2554.99 185.574ZM2615.59 185.574C2609.8 185.574 2605.5 184.354 2602.7 181.912C2599.9 179.471 2598.5 175.451 2598.5 169.852V142.898H2591.22V132.156H2598.5V119.363H2612.9V132.156H2622.47V142.898H2612.9V168.289C2612.9 170.73 2613.44 172.439 2614.52 173.416C2615.62 174.36 2617.25 174.832 2619.4 174.832C2620.05 174.832 2620.62 174.816 2621.11 174.783C2621.6 174.718 2622.05 174.653 2622.47 174.588V185.037C2621.69 185.167 2620.72 185.281 2619.54 185.379C2618.41 185.509 2617.09 185.574 2615.59 185.574Z" fill="white"/>
<path d="M1534.28 184.5V114.041H1549.02V142.654H1580.76V114.041H1595.51V184.5H1580.76V154.812H1549.02V184.5H1534.28ZM1630.03 185.574C1624.72 185.574 1620.13 184.484 1616.26 182.303C1612.38 180.122 1609.39 176.997 1607.27 172.928C1605.16 168.859 1604.1 163.992 1604.1 158.328V158.23C1604.1 152.599 1605.17 147.765 1607.32 143.729C1609.47 139.66 1612.48 136.535 1616.36 134.354C1620.23 132.173 1624.77 131.082 1629.98 131.082C1635.22 131.082 1639.78 132.173 1643.65 134.354C1647.56 136.502 1650.58 139.611 1652.73 143.68C1654.88 147.716 1655.96 152.566 1655.96 158.23V158.328C1655.96 164.025 1654.88 168.908 1652.73 172.977C1650.62 177.046 1647.62 180.171 1643.75 182.352C1639.87 184.5 1635.3 185.574 1630.03 185.574ZM1630.08 174.393C1632.39 174.393 1634.39 173.774 1636.08 172.537C1637.81 171.268 1639.13 169.445 1640.04 167.068C1640.98 164.66 1641.45 161.746 1641.45 158.328V158.23C1641.45 154.845 1640.98 151.964 1640.04 149.588C1639.09 147.212 1637.76 145.405 1636.03 144.168C1634.31 142.898 1632.29 142.264 1629.98 142.264C1627.7 142.264 1625.7 142.898 1623.97 144.168C1622.28 145.405 1620.96 147.212 1620.02 149.588C1619.07 151.964 1618.6 154.845 1618.6 158.23V158.328C1618.6 161.746 1619.06 164.66 1619.97 167.068C1620.91 169.445 1622.25 171.268 1623.97 172.537C1625.7 173.774 1627.73 174.393 1630.08 174.393ZM1663.33 184.5V132.156H1677.59V140.945H1677.88C1678.95 137.951 1680.78 135.558 1683.35 133.768C1685.95 131.977 1689.01 131.082 1692.53 131.082C1694.97 131.082 1697.17 131.505 1699.12 132.352C1701.07 133.198 1702.72 134.419 1704.05 136.014C1705.42 137.609 1706.38 139.562 1706.93 141.873H1707.22C1708.01 139.66 1709.18 137.755 1710.74 136.16C1712.34 134.533 1714.21 133.279 1716.36 132.4C1718.54 131.521 1720.91 131.082 1723.48 131.082C1726.9 131.082 1729.9 131.814 1732.47 133.279C1735.04 134.744 1737.04 136.795 1738.47 139.432C1739.91 142.068 1740.62 145.161 1740.62 148.709V184.5H1726.37V152.273C1726.37 150.255 1726.02 148.546 1725.34 147.146C1724.69 145.747 1723.73 144.689 1722.46 143.973C1721.22 143.257 1719.68 142.898 1717.82 142.898C1716.03 142.898 1714.45 143.305 1713.08 144.119C1711.75 144.933 1710.71 146.072 1709.96 147.537C1709.21 149.002 1708.84 150.711 1708.84 152.664V184.5H1695.12V151.834C1695.12 149.946 1694.77 148.335 1694.09 147C1693.41 145.665 1692.43 144.656 1691.16 143.973C1689.92 143.257 1688.43 142.898 1686.67 142.898C1684.88 142.898 1683.3 143.322 1681.93 144.168C1680.56 145.014 1679.49 146.186 1678.71 147.684C1677.96 149.181 1677.59 150.923 1677.59 152.908V184.5H1663.33ZM1773.48 185.574C1768.15 185.574 1763.56 184.484 1759.71 182.303C1755.87 180.089 1752.91 176.948 1750.83 172.879C1748.78 168.81 1747.75 163.992 1747.75 158.426V158.377C1747.75 152.811 1748.78 147.993 1750.83 143.924C1752.91 139.822 1755.82 136.665 1759.57 134.451C1763.34 132.205 1767.79 131.082 1772.9 131.082C1778.01 131.082 1782.42 132.173 1786.13 134.354C1789.87 136.502 1792.76 139.546 1794.77 143.484C1796.82 147.423 1797.85 152.029 1797.85 157.303V161.697H1754.73V152.713H1791.11L1784.32 161.111V155.643C1784.32 152.583 1783.85 150.027 1782.91 147.977C1781.96 145.893 1780.65 144.331 1778.95 143.289C1777.29 142.247 1775.36 141.727 1773.14 141.727C1770.93 141.727 1768.96 142.264 1767.23 143.338C1765.54 144.412 1764.21 145.991 1763.23 148.074C1762.29 150.125 1761.81 152.648 1761.81 155.643V161.16C1761.81 164.057 1762.29 166.531 1763.23 168.582C1764.21 170.633 1765.59 172.212 1767.38 173.318C1769.17 174.393 1771.3 174.93 1773.78 174.93C1775.73 174.93 1777.42 174.62 1778.86 174.002C1780.29 173.383 1781.46 172.602 1782.37 171.658C1783.28 170.714 1783.9 169.754 1784.23 168.777L1784.32 168.484H1797.41L1797.26 169.021C1796.87 170.942 1796.11 172.879 1794.97 174.832C1793.83 176.785 1792.28 178.576 1790.33 180.203C1788.41 181.831 1786.05 183.133 1783.25 184.109C1780.48 185.086 1777.23 185.574 1773.48 185.574Z" fill="white"/>
<path d="M2704.28 162.283V150.76H2721.57C2725.8 150.76 2729.09 149.686 2731.43 147.537C2733.81 145.356 2734.99 142.264 2734.99 138.26V138.162C2734.99 134.158 2733.81 131.082 2731.43 128.934C2729.09 126.785 2725.8 125.711 2721.57 125.711H2704.28V114.041H2725.18C2730.13 114.041 2734.46 115.05 2738.17 117.068C2741.88 119.054 2744.76 121.854 2746.81 125.467C2748.89 129.08 2749.94 133.296 2749.94 138.113V138.211C2749.94 143.061 2748.89 147.293 2746.81 150.906C2744.76 154.52 2741.88 157.319 2738.17 159.305C2734.46 161.29 2730.13 162.283 2725.18 162.283H2704.28ZM2696.86 184.5V114.041H2711.61V184.5H2696.86ZM2757.46 184.5V132.156H2771.71V141.287H2772.01C2772.79 138.064 2774.2 135.558 2776.25 133.768C2778.3 131.977 2780.86 131.082 2783.92 131.082C2784.7 131.082 2785.45 131.131 2786.17 131.229C2786.88 131.326 2787.5 131.456 2788.02 131.619V144.168C2787.44 143.94 2786.69 143.761 2785.78 143.631C2784.86 143.468 2783.89 143.387 2782.85 143.387C2780.5 143.387 2778.5 143.842 2776.84 144.754C2775.18 145.665 2773.91 147 2773.03 148.758C2772.15 150.516 2771.71 152.664 2771.71 155.203V184.5H2757.46ZM2816.24 185.574C2810.94 185.574 2806.35 184.484 2802.47 182.303C2798.6 180.122 2795.61 176.997 2793.49 172.928C2791.37 168.859 2790.32 163.992 2790.32 158.328V158.23C2790.32 152.599 2791.39 147.765 2793.54 143.729C2795.69 139.66 2798.7 136.535 2802.57 134.354C2806.45 132.173 2810.99 131.082 2816.2 131.082C2821.44 131.082 2825.99 132.173 2829.87 134.354C2833.77 136.502 2836.8 139.611 2838.95 143.68C2841.1 147.716 2842.17 152.566 2842.17 158.23V158.328C2842.17 164.025 2841.1 168.908 2838.95 172.977C2836.83 177.046 2833.84 180.171 2829.96 182.352C2826.09 184.5 2821.52 185.574 2816.24 185.574ZM2816.29 174.393C2818.6 174.393 2820.61 173.774 2822.3 172.537C2824.02 171.268 2825.34 169.445 2826.25 167.068C2827.2 164.66 2827.67 161.746 2827.67 158.328V158.23C2827.67 154.845 2827.2 151.964 2826.25 149.588C2825.31 147.212 2823.98 145.405 2822.25 144.168C2820.52 142.898 2818.51 142.264 2816.2 142.264C2813.92 142.264 2811.91 142.898 2810.19 144.168C2808.5 145.405 2807.18 147.212 2806.23 149.588C2805.29 151.964 2804.82 154.845 2804.82 158.23V158.328C2804.82 161.746 2805.27 164.66 2806.19 167.068C2807.13 169.445 2808.46 171.268 2810.19 172.537C2811.91 173.774 2813.95 174.393 2816.29 174.393ZM2845.3 201.736C2844.65 201.736 2843.95 201.72 2843.2 201.688C2842.42 201.655 2841.81 201.622 2841.39 201.59V190.848C2841.65 190.88 2841.94 190.896 2842.27 190.896C2842.56 190.929 2842.87 190.945 2843.2 190.945C2845.57 190.945 2847.27 190.506 2848.28 189.627C2849.28 188.781 2849.79 187.299 2849.79 185.184V132.156H2864.05V185.574C2864.05 190.88 2862.45 194.9 2859.26 197.635C2856.1 200.369 2851.45 201.736 2845.3 201.736ZM2856.92 125.418C2854.77 125.418 2852.96 124.686 2851.5 123.221C2850.03 121.756 2849.3 120.014 2849.3 117.996C2849.3 115.945 2850.03 114.204 2851.5 112.771C2852.96 111.307 2854.77 110.574 2856.92 110.574C2859.07 110.574 2860.87 111.307 2862.34 112.771C2863.8 114.204 2864.54 115.945 2864.54 117.996C2864.54 120.014 2863.8 121.756 2862.34 123.221C2860.87 124.686 2859.07 125.418 2856.92 125.418ZM2897.4 185.574C2892.06 185.574 2887.47 184.484 2883.63 182.303C2879.79 180.089 2876.82 176.948 2874.74 172.879C2872.69 168.81 2871.66 163.992 2871.66 158.426V158.377C2871.66 152.811 2872.69 147.993 2874.74 143.924C2876.82 139.822 2879.74 136.665 2883.48 134.451C2887.26 132.205 2891.7 131.082 2896.81 131.082C2901.92 131.082 2906.33 132.173 2910.04 134.354C2913.79 136.502 2916.67 139.546 2918.69 143.484C2920.74 147.423 2921.76 152.029 2921.76 157.303V161.697H2878.65V152.713H2915.02L2908.24 161.111V155.643C2908.24 152.583 2907.76 150.027 2906.82 147.977C2905.88 145.893 2904.56 144.331 2902.87 143.289C2901.21 142.247 2899.27 141.727 2897.05 141.727C2894.84 141.727 2892.87 142.264 2891.15 143.338C2889.45 144.412 2888.12 145.991 2887.14 148.074C2886.2 150.125 2885.73 152.648 2885.73 155.643V161.16C2885.73 164.057 2886.2 166.531 2887.14 168.582C2888.12 170.633 2889.5 172.212 2891.29 173.318C2893.08 174.393 2895.22 174.93 2897.69 174.93C2899.64 174.93 2901.34 174.62 2902.77 174.002C2904.2 173.383 2905.37 172.602 2906.28 171.658C2907.19 170.714 2907.81 169.754 2908.14 168.777L2908.24 168.484H2921.32L2921.18 169.021C2920.79 170.942 2920.02 172.879 2918.88 174.832C2917.74 176.785 2916.2 178.576 2914.24 180.203C2912.32 181.831 2909.96 183.133 2907.16 184.109C2904.4 185.086 2901.14 185.574 2897.4 185.574ZM2953.06 185.574C2947.75 185.574 2943.16 184.467 2939.29 182.254C2935.42 180.04 2932.44 176.899 2930.36 172.83C2928.27 168.729 2927.23 163.878 2927.23 158.279V158.23C2927.23 152.632 2928.27 147.814 2930.36 143.777C2932.47 139.708 2935.45 136.583 2939.29 134.402C2943.16 132.189 2947.71 131.082 2952.91 131.082C2957.67 131.082 2961.78 131.977 2965.27 133.768C2968.75 135.525 2971.47 137.918 2973.42 140.945C2975.41 143.973 2976.5 147.374 2976.69 151.15V151.492H2963.46L2963.36 151.053C2962.94 148.546 2961.87 146.463 2960.14 144.803C2958.42 143.11 2956.07 142.264 2953.11 142.264C2950.8 142.264 2948.78 142.915 2947.05 144.217C2945.36 145.486 2944.04 147.326 2943.1 149.734C2942.19 152.111 2941.73 154.959 2941.73 158.279V158.328C2941.73 161.746 2942.19 164.66 2943.1 167.068C2944.04 169.445 2945.36 171.268 2947.05 172.537C2948.78 173.774 2950.81 174.393 2953.16 174.393C2956.02 174.393 2958.32 173.595 2960.04 172C2961.8 170.372 2962.92 168.24 2963.41 165.604L2963.46 165.164H2976.74V165.457C2976.51 169.266 2975.41 172.684 2973.42 175.711C2971.44 178.738 2968.7 181.147 2965.22 182.938C2961.77 184.695 2957.72 185.574 2953.06 185.574ZM3004.43 185.574C2998.63 185.574 2994.34 184.354 2991.54 181.912C2988.74 179.471 2987.34 175.451 2987.34 169.852V142.898H2980.06V132.156H2987.34V119.363H3001.74V132.156H3011.31V142.898H3001.74V168.289C3001.74 170.73 3002.28 172.439 3003.35 173.416C3004.46 174.36 3006.09 174.832 3008.24 174.832C3008.89 174.832 3009.46 174.816 3009.95 174.783C3010.43 174.718 3010.89 174.653 3011.31 174.588V185.037C3010.53 185.167 3009.55 185.281 3008.38 185.379C3007.24 185.509 3005.93 185.574 3004.43 185.574ZM3040.71 185.574C3035.89 185.574 3031.79 184.874 3028.4 183.475C3025.02 182.075 3022.36 180.138 3020.44 177.664C3018.56 175.158 3017.42 172.26 3017.03 168.973L3016.98 168.533H3030.89L3030.99 168.973C3031.45 171.023 3032.47 172.618 3034.07 173.758C3035.66 174.897 3037.88 175.467 3040.71 175.467C3042.53 175.467 3044.08 175.255 3045.35 174.832C3046.62 174.376 3047.59 173.742 3048.28 172.928C3048.99 172.114 3049.35 171.137 3049.35 169.998V169.949C3049.35 168.549 3048.85 167.426 3047.84 166.58C3046.83 165.734 3045.04 165.018 3042.46 164.432L3033.58 162.576C3030.19 161.86 3027.36 160.835 3025.08 159.5C3022.84 158.133 3021.14 156.456 3020 154.471C3018.86 152.452 3018.29 150.141 3018.29 147.537V147.488C3018.29 144.135 3019.19 141.238 3020.98 138.797C3022.77 136.355 3025.31 134.467 3028.6 133.133C3031.92 131.766 3035.79 131.082 3040.22 131.082C3044.84 131.082 3048.76 131.831 3051.99 133.328C3055.24 134.793 3057.73 136.779 3059.46 139.285C3061.21 141.792 3062.14 144.575 3062.24 147.635V148.123H3049.11L3049.06 147.732C3048.83 145.844 3047.95 144.282 3046.42 143.045C3044.92 141.775 3042.86 141.141 3040.22 141.141C3038.59 141.141 3037.18 141.368 3035.97 141.824C3034.77 142.28 3033.84 142.931 3033.19 143.777C3032.54 144.591 3032.21 145.568 3032.21 146.707V146.756C3032.21 147.635 3032.42 148.432 3032.85 149.148C3033.3 149.832 3034.05 150.434 3035.09 150.955C3036.13 151.476 3037.53 151.932 3039.29 152.322L3048.18 154.227C3053.68 155.366 3057.62 157.075 3059.99 159.354C3062.4 161.632 3063.61 164.692 3063.61 168.533V168.582C3063.61 172 3062.63 174.979 3060.68 177.518C3058.72 180.057 3056.02 182.042 3052.57 183.475C3049.15 184.874 3045.2 185.574 3040.71 185.574Z" fill="white"/>
<path d="M1916.89 185.721C1911.32 185.721 1906.45 184.907 1902.29 183.279C1898.15 181.619 1894.9 179.259 1892.52 176.199C1890.15 173.107 1888.81 169.396 1888.52 165.066L1888.47 164.285H1902.38L1902.48 164.822C1902.81 166.645 1903.62 168.224 1904.92 169.559C1906.26 170.861 1907.98 171.886 1910.1 172.635C1912.22 173.351 1914.61 173.709 1917.28 173.709C1920.01 173.709 1922.36 173.351 1924.31 172.635C1926.29 171.886 1927.82 170.844 1928.9 169.51C1930.01 168.143 1930.56 166.564 1930.56 164.773V164.725C1930.56 162.348 1929.61 160.493 1927.73 159.158C1925.87 157.791 1922.75 156.652 1918.35 155.74L1910.93 154.275C1904 152.876 1898.77 150.516 1895.26 147.195C1891.74 143.875 1889.98 139.562 1889.98 134.256V134.207C1889.98 129.91 1891.14 126.167 1893.45 122.977C1895.76 119.754 1898.93 117.264 1902.97 115.506C1907.01 113.715 1911.63 112.82 1916.84 112.82C1922.27 112.82 1926.96 113.667 1930.9 115.359C1934.87 117.052 1937.96 119.445 1940.18 122.537C1942.39 125.63 1943.61 129.227 1943.84 133.328L1943.89 134.256H1929.97L1929.92 133.67C1929.66 131.814 1928.96 130.236 1927.82 128.934C1926.68 127.599 1925.17 126.574 1923.28 125.857C1921.43 125.141 1919.28 124.783 1916.84 124.783C1914.33 124.783 1912.17 125.158 1910.34 125.906C1908.52 126.622 1907.12 127.615 1906.14 128.885C1905.2 130.154 1904.73 131.635 1904.73 133.328V133.377C1904.73 135.59 1905.67 137.381 1907.56 138.748C1909.45 140.115 1912.41 141.206 1916.45 142.02L1923.92 143.533C1928.83 144.51 1932.87 145.861 1936.03 147.586C1939.18 149.311 1941.51 151.492 1943.01 154.129C1944.54 156.733 1945.3 159.874 1945.3 163.553V163.602C1945.3 168.126 1944.17 172.049 1941.89 175.369C1939.64 178.657 1936.39 181.212 1932.12 183.035C1927.89 184.826 1922.81 185.721 1916.89 185.721ZM1976.95 185.574C1971.61 185.574 1967.02 184.484 1963.18 182.303C1959.33 180.089 1956.37 176.948 1954.29 172.879C1952.24 168.81 1951.21 163.992 1951.21 158.426V158.377C1951.21 152.811 1952.24 147.993 1954.29 143.924C1956.37 139.822 1959.29 136.665 1963.03 134.451C1966.81 132.205 1971.25 131.082 1976.36 131.082C1981.47 131.082 1985.88 132.173 1989.59 134.354C1993.34 136.502 1996.22 139.546 1998.23 143.484C2000.29 147.423 2001.31 152.029 2001.31 157.303V161.697H1958.2V152.713H1994.57L1987.79 161.111V155.643C1987.79 152.583 1987.31 150.027 1986.37 147.977C1985.43 145.893 1984.11 144.331 1982.41 143.289C1980.75 142.247 1978.82 141.727 1976.6 141.727C1974.39 141.727 1972.42 142.264 1970.7 143.338C1969 144.412 1967.67 145.991 1966.69 148.074C1965.75 150.125 1965.28 152.648 1965.28 155.643V161.16C1965.28 164.057 1965.75 166.531 1966.69 168.582C1967.67 170.633 1969.05 172.212 1970.84 173.318C1972.63 174.393 1974.76 174.93 1977.24 174.93C1979.19 174.93 1980.88 174.62 1982.32 174.002C1983.75 173.383 1984.92 172.602 1985.83 171.658C1986.74 170.714 1987.36 169.754 1987.69 168.777L1987.79 168.484H2000.87L2000.72 169.021C2000.33 170.942 1999.57 172.879 1998.43 174.832C1997.29 176.785 1995.74 178.576 1993.79 180.203C1991.87 181.831 1989.51 183.133 1986.71 184.109C1983.94 185.086 1980.69 185.574 1976.95 185.574ZM2008.68 184.5V132.156H2022.94V141.287H2023.23C2024.02 138.064 2025.43 135.558 2027.48 133.768C2029.53 131.977 2032.09 131.082 2035.15 131.082C2035.93 131.082 2036.68 131.131 2037.39 131.229C2038.11 131.326 2038.73 131.456 2039.25 131.619V144.168C2038.66 143.94 2037.92 143.761 2037 143.631C2036.09 143.468 2035.12 143.387 2034.07 143.387C2031.73 143.387 2029.73 143.842 2028.07 144.754C2026.41 145.665 2025.14 147 2024.26 148.758C2023.38 150.516 2022.94 152.664 2022.94 155.203V184.5H2008.68ZM2060.69 184.5L2042.57 132.156H2057.8L2068.74 171.902H2069.04L2079.83 132.156H2094.72L2076.75 184.5H2060.69ZM2099.99 184.5V132.156H2114.25V184.5H2099.99ZM2107.12 125.418C2104.97 125.418 2103.17 124.686 2101.7 123.221C2100.24 121.756 2099.5 120.014 2099.5 117.996C2099.5 115.945 2100.24 114.204 2101.7 112.771C2103.17 111.307 2104.97 110.574 2107.12 110.574C2109.27 110.574 2111.08 111.307 2112.54 112.771C2114.01 114.204 2114.74 115.945 2114.74 117.996C2114.74 120.014 2114.01 121.756 2112.54 123.221C2111.08 124.686 2109.27 125.418 2107.12 125.418ZM2147.75 185.574C2142.44 185.574 2137.85 184.467 2133.98 182.254C2130.1 180.04 2127.12 176.899 2125.04 172.83C2122.96 168.729 2121.92 163.878 2121.92 158.279V158.23C2121.92 152.632 2122.96 147.814 2125.04 143.777C2127.16 139.708 2130.14 136.583 2133.98 134.402C2137.85 132.189 2142.39 131.082 2147.6 131.082C2152.35 131.082 2156.47 131.977 2159.95 133.768C2163.44 135.525 2166.15 137.918 2168.11 140.945C2170.09 143.973 2171.18 147.374 2171.38 151.15V151.492H2158.15L2158.05 151.053C2157.63 148.546 2156.55 146.463 2154.83 144.803C2153.1 143.11 2150.76 142.264 2147.79 142.264C2145.48 142.264 2143.47 142.915 2141.74 144.217C2140.05 145.486 2138.73 147.326 2137.79 149.734C2136.87 152.111 2136.42 154.959 2136.42 158.279V158.328C2136.42 161.746 2136.87 164.66 2137.79 167.068C2138.73 169.445 2140.05 171.268 2141.74 172.537C2143.47 173.774 2145.5 174.393 2147.84 174.393C2150.71 174.393 2153 173.595 2154.73 172C2156.49 170.372 2157.61 168.24 2158.1 165.604L2158.15 165.164H2171.43V165.457C2171.2 169.266 2170.09 172.684 2168.11 175.711C2166.12 178.738 2163.39 181.147 2159.9 182.938C2156.45 184.695 2152.4 185.574 2147.75 185.574ZM2202.14 185.574C2196.8 185.574 2192.21 184.484 2188.37 182.303C2184.53 180.089 2181.57 176.948 2179.48 172.879C2177.43 168.81 2176.41 163.992 2176.41 158.426V158.377C2176.41 152.811 2177.43 147.993 2179.48 143.924C2181.57 139.822 2184.48 136.665 2188.22 134.451C2192 132.205 2196.44 131.082 2201.55 131.082C2206.67 131.082 2211.08 132.173 2214.79 134.354C2218.53 136.502 2221.41 139.546 2223.43 143.484C2225.48 147.423 2226.51 152.029 2226.51 157.303V161.697H2183.39V152.713H2219.77L2212.98 161.111V155.643C2212.98 152.583 2212.51 150.027 2211.56 147.977C2210.62 145.893 2209.3 144.331 2207.61 143.289C2205.95 142.247 2204.01 141.727 2201.8 141.727C2199.59 141.727 2197.62 142.264 2195.89 143.338C2194.2 144.412 2192.86 145.991 2191.89 148.074C2190.94 150.125 2190.47 152.648 2190.47 155.643V161.16C2190.47 164.057 2190.94 166.531 2191.89 168.582C2192.86 170.633 2194.25 172.212 2196.04 173.318C2197.83 174.393 2199.96 174.93 2202.43 174.93C2204.39 174.93 2206.08 174.62 2207.51 174.002C2208.94 173.383 2210.12 172.602 2211.03 171.658C2211.94 170.714 2212.56 169.754 2212.88 168.777L2212.98 168.484H2226.07L2225.92 169.021C2225.53 170.942 2224.76 172.879 2223.62 174.832C2222.49 176.785 2220.94 178.576 2218.99 180.203C2217.07 181.831 2214.71 183.133 2211.91 184.109C2209.14 185.086 2205.88 185.574 2202.14 185.574ZM2255.41 185.574C2250.59 185.574 2246.49 184.874 2243.11 183.475C2239.72 182.075 2237.07 180.138 2235.15 177.664C2233.26 175.158 2232.12 172.26 2231.73 168.973L2231.68 168.533H2245.6L2245.7 168.973C2246.15 171.023 2247.18 172.618 2248.77 173.758C2250.37 174.897 2252.58 175.467 2255.41 175.467C2257.24 175.467 2258.78 175.255 2260.05 174.832C2261.32 174.376 2262.3 173.742 2262.98 172.928C2263.7 172.114 2264.05 171.137 2264.05 169.998V169.949C2264.05 168.549 2263.55 167.426 2262.54 166.58C2261.53 165.734 2259.74 165.018 2257.17 164.432L2248.28 162.576C2244.9 161.86 2242.07 160.835 2239.79 159.5C2237.54 158.133 2235.85 156.456 2234.71 154.471C2233.57 152.452 2233 150.141 2233 147.537V147.488C2233 144.135 2233.9 141.238 2235.69 138.797C2237.48 136.355 2240.01 134.467 2243.3 133.133C2246.62 131.766 2250.5 131.082 2254.92 131.082C2259.55 131.082 2263.47 131.831 2266.69 133.328C2269.95 134.793 2272.44 136.779 2274.16 139.285C2275.92 141.792 2276.85 144.575 2276.95 147.635V148.123H2263.81L2263.76 147.732C2263.53 145.844 2262.65 144.282 2261.12 143.045C2259.63 141.775 2257.56 141.141 2254.92 141.141C2253.3 141.141 2251.88 141.368 2250.68 141.824C2249.47 142.28 2248.54 142.931 2247.89 143.777C2247.24 144.591 2246.92 145.568 2246.92 146.707V146.756C2246.92 147.635 2247.13 148.432 2247.55 149.148C2248.01 149.832 2248.76 150.434 2249.8 150.955C2250.84 151.476 2252.24 151.932 2254 152.322L2262.88 154.227C2268.38 155.366 2272.32 157.075 2274.7 159.354C2277.11 161.632 2278.31 164.692 2278.31 168.533V168.582C2278.31 172 2277.34 174.979 2275.38 177.518C2273.43 180.057 2270.73 182.042 2267.28 183.475C2263.86 184.874 2259.9 185.574 2255.41 185.574Z" fill="white"/>
<rect x="3613" y="52.5" width="727" height="232" rx="50" fill="white"/>
<path d="M3719.13 224.331C3708.82 224.331 3699.89 222.134 3692.32 217.739C3684.8 213.345 3678.99 207.07 3674.89 198.916C3670.84 190.713 3668.81 180.947 3668.81 169.619V169.546C3668.81 158.169 3670.86 148.428 3674.96 140.322C3679.06 132.168 3684.87 125.918 3692.39 121.572C3699.91 117.178 3708.82 114.98 3719.13 114.98C3727.67 114.98 3735.29 116.641 3741.98 119.961C3748.67 123.281 3754.04 127.847 3758.09 133.657C3762.14 139.419 3764.51 146.06 3765.2 153.579L3765.27 154.238H3743.74L3743.44 152.993C3742.61 149.087 3741.12 145.693 3738.98 142.812C3736.83 139.932 3734.07 137.71 3730.7 136.147C3727.38 134.536 3723.52 133.73 3719.13 133.73C3713.46 133.73 3708.56 135.171 3704.41 138.052C3700.25 140.933 3697.03 145.059 3694.74 150.43C3692.49 155.752 3691.37 162.1 3691.37 169.473V169.546C3691.37 176.968 3692.49 183.389 3694.74 188.809C3697.03 194.18 3700.25 198.33 3704.41 201.26C3708.6 204.141 3713.51 205.581 3719.13 205.581C3723.38 205.581 3727.16 204.8 3730.48 203.237C3733.85 201.675 3736.66 199.429 3738.9 196.499C3741.15 193.521 3742.74 189.932 3743.66 185.732L3743.81 185H3765.34L3765.27 185.806C3764.59 193.276 3762.19 199.917 3758.09 205.728C3754.04 211.538 3748.67 216.104 3741.98 219.424C3735.29 222.695 3727.67 224.331 3719.13 224.331ZM3813.24 224.111C3805.28 224.111 3798.4 222.476 3792.59 219.204C3786.78 215.933 3782.29 211.245 3779.11 205.142C3775.94 199.038 3774.35 191.738 3774.35 183.242V183.096C3774.35 174.648 3775.96 167.397 3779.19 161.343C3782.41 155.239 3786.92 150.552 3792.74 147.28C3798.55 144.009 3805.36 142.373 3813.17 142.373C3821.03 142.373 3827.87 144.009 3833.68 147.28C3839.54 150.503 3844.08 155.166 3847.3 161.27C3850.52 167.324 3852.13 174.6 3852.13 183.096V183.242C3852.13 191.787 3850.52 199.111 3847.3 205.215C3844.13 211.318 3839.63 216.006 3833.82 219.277C3828.01 222.5 3821.15 224.111 3813.24 224.111ZM3813.32 207.339C3816.78 207.339 3819.79 206.411 3822.33 204.556C3824.91 202.651 3826.89 199.917 3828.26 196.353C3829.67 192.739 3830.38 188.369 3830.38 183.242V183.096C3830.38 178.018 3829.67 173.696 3828.26 170.132C3826.84 166.567 3824.84 163.857 3822.25 162.002C3819.66 160.098 3816.64 159.146 3813.17 159.146C3809.75 159.146 3806.75 160.098 3804.16 162.002C3801.62 163.857 3799.64 166.567 3798.23 170.132C3796.81 173.696 3796.1 178.018 3796.1 183.096V183.242C3796.1 188.369 3796.79 192.739 3798.16 196.353C3799.57 199.917 3801.57 202.651 3804.16 204.556C3806.75 206.411 3809.8 207.339 3813.32 207.339ZM3863.19 222.5V143.984H3884.58V156.875H3885.02C3887.07 152.383 3890.1 148.843 3894.1 146.255C3898.11 143.667 3903.06 142.373 3908.97 142.373C3917.61 142.373 3924.28 144.985 3928.97 150.21C3933.7 155.386 3936.07 162.588 3936.07 171.816V222.5H3914.68V176.211C3914.68 171.084 3913.46 167.129 3911.02 164.346C3908.63 161.514 3905.04 160.098 3900.25 160.098C3897.08 160.098 3894.32 160.83 3891.98 162.295C3889.63 163.711 3887.8 165.713 3886.49 168.301C3885.22 170.889 3884.58 173.916 3884.58 177.383V222.5H3863.19ZM3980.82 224.111C3972.13 224.111 3965.68 222.28 3961.49 218.618C3957.29 214.956 3955.19 208.926 3955.19 200.527V160.098H3944.27V143.984H3955.19V124.795H3976.79V143.984H3991.15V160.098H3976.79V198.184C3976.79 201.846 3977.6 204.409 3979.21 205.874C3980.87 207.29 3983.31 207.998 3986.53 207.998C3987.51 207.998 3988.37 207.974 3989.1 207.925C3989.83 207.827 3990.51 207.729 3991.15 207.632V223.306C3989.98 223.501 3988.51 223.672 3986.75 223.818C3985.04 224.014 3983.07 224.111 3980.82 224.111ZM4025.57 223.745C4020.35 223.745 4015.76 222.744 4011.8 220.742C4007.85 218.691 4004.75 215.884 4002.5 212.319C4000.3 208.706 3999.21 204.604 3999.21 200.015V199.868C3999.21 195.083 4000.4 191.006 4002.79 187.637C4005.19 184.219 4008.65 181.533 4013.19 179.58C4017.74 177.627 4023.25 176.431 4029.75 175.991L4060.36 174.087V187.417L4032.97 189.175C4028.87 189.419 4025.74 190.396 4023.59 192.104C4021.45 193.765 4020.37 195.986 4020.37 198.77V198.916C4020.37 201.797 4021.47 204.067 4023.67 205.728C4025.87 207.339 4028.82 208.145 4032.53 208.145C4035.7 208.145 4038.54 207.534 4041.03 206.313C4043.57 205.044 4045.54 203.335 4046.96 201.187C4048.42 198.989 4049.16 196.523 4049.16 193.789V169.985C4049.16 166.519 4048.06 163.784 4045.86 161.782C4043.66 159.731 4040.46 158.706 4036.27 158.706C4032.26 158.706 4029.09 159.536 4026.74 161.196C4024.4 162.856 4022.96 164.956 4022.42 167.495L4022.28 168.154H4002.72L4002.79 167.275C4003.18 162.441 4004.77 158.145 4007.55 154.385C4010.39 150.625 4014.29 147.695 4019.27 145.596C4024.3 143.447 4030.26 142.373 4037.14 142.373C4043.93 142.373 4049.82 143.472 4054.8 145.669C4059.78 147.817 4063.63 150.869 4066.37 154.824C4069.15 158.779 4070.54 163.394 4070.54 168.667V222.5H4049.16V210.781H4048.72C4047.25 213.467 4045.35 215.786 4043 217.739C4040.71 219.644 4038.1 221.133 4035.17 222.207C4032.24 223.232 4029.04 223.745 4025.57 223.745ZM4120.27 224.111C4112.32 224.111 4105.43 222.451 4099.62 219.131C4093.81 215.811 4089.34 211.099 4086.22 204.995C4083.09 198.843 4081.53 191.567 4081.53 183.169V183.096C4081.53 174.697 4083.09 167.471 4086.22 161.416C4089.39 155.312 4093.86 150.625 4099.62 147.354C4105.43 144.033 4112.24 142.373 4120.05 142.373C4127.18 142.373 4133.36 143.716 4138.58 146.401C4143.81 149.038 4147.89 152.627 4150.82 157.168C4153.79 161.709 4155.43 166.812 4155.72 172.476V172.988H4135.88L4135.73 172.329C4135.09 168.569 4133.48 165.444 4130.89 162.954C4128.31 160.415 4124.79 159.146 4120.35 159.146C4116.88 159.146 4113.85 160.122 4111.27 162.075C4108.73 163.979 4106.75 166.738 4105.33 170.352C4103.97 173.916 4103.28 178.188 4103.28 183.169V183.242C4103.28 188.369 4103.97 192.739 4105.33 196.353C4106.75 199.917 4108.73 202.651 4111.27 204.556C4113.85 206.411 4116.91 207.339 4120.42 207.339C4124.72 207.339 4128.16 206.143 4130.75 203.75C4133.38 201.309 4135.07 198.11 4135.8 194.155L4135.88 193.496H4155.8V193.936C4155.46 199.648 4153.79 204.775 4150.82 209.316C4147.84 213.857 4143.74 217.471 4138.51 220.156C4133.34 222.793 4127.26 224.111 4120.27 224.111ZM4197.33 224.111C4188.63 224.111 4182.19 222.28 4177.99 218.618C4173.79 214.956 4171.69 208.926 4171.69 200.527V160.098H4160.78V143.984H4171.69V124.795H4193.3V143.984H4207.65V160.098H4193.3V198.184C4193.3 201.846 4194.1 204.409 4195.71 205.874C4197.37 207.29 4199.82 207.998 4203.04 207.998C4204.01 207.998 4204.87 207.974 4205.6 207.925C4206.33 207.827 4207.02 207.729 4207.65 207.632V223.306C4206.48 223.501 4205.02 223.672 4203.26 223.818C4201.55 224.014 4199.57 224.111 4197.33 224.111ZM4251.74 224.111C4244.52 224.111 4238.37 223.062 4233.29 220.962C4228.21 218.862 4224.23 215.957 4221.35 212.246C4218.52 208.486 4216.81 204.141 4216.22 199.209L4216.15 198.55H4237.02L4237.17 199.209C4237.85 202.285 4239.39 204.678 4241.78 206.387C4244.18 208.096 4247.5 208.95 4251.74 208.95C4254.48 208.95 4256.8 208.633 4258.7 207.998C4260.61 207.314 4262.07 206.362 4263.1 205.142C4264.17 203.921 4264.71 202.456 4264.71 200.747V200.674C4264.71 198.574 4263.95 196.89 4262.44 195.62C4260.92 194.351 4258.24 193.276 4254.38 192.397L4241.05 189.614C4235.97 188.54 4231.72 187.002 4228.31 185C4224.94 182.949 4222.4 180.435 4220.69 177.456C4218.98 174.429 4218.13 170.962 4218.13 167.056V166.982C4218.13 161.953 4219.47 157.607 4222.15 153.945C4224.84 150.283 4228.65 147.451 4233.58 145.449C4238.56 143.398 4244.37 142.373 4251.01 142.373C4257.95 142.373 4263.83 143.496 4268.66 145.742C4273.55 147.939 4277.28 150.918 4279.87 154.678C4282.51 158.438 4283.9 162.612 4284.04 167.202V167.935H4264.34L4264.27 167.349C4263.93 164.517 4262.61 162.173 4260.31 160.317C4258.07 158.413 4254.97 157.461 4251.01 157.461C4248.57 157.461 4246.45 157.803 4244.64 158.486C4242.83 159.17 4241.44 160.146 4240.46 161.416C4239.49 162.637 4239 164.102 4239 165.811V165.884C4239 167.202 4239.32 168.398 4239.95 169.473C4240.64 170.498 4241.76 171.401 4243.32 172.183C4244.88 172.964 4246.98 173.647 4249.62 174.233L4262.95 177.09C4271.2 178.799 4277.11 181.362 4280.67 184.78C4284.29 188.198 4286.09 192.788 4286.09 198.55V198.623C4286.09 203.75 4284.63 208.218 4281.7 212.026C4278.77 215.835 4274.72 218.813 4269.54 220.962C4264.42 223.062 4258.48 224.111 4251.74 224.111Z" fill="black"/>
</g>
<defs>
<filter id="filter0_f_98_10" x="-370" y="-199.5" width="5335" height="697" filterUnits="userSpaceOnUse" color-interpolation-filters="sRGB">
<feFlood flood-opacity="0" result="BackgroundImageFix"/>
<feBlend mode="normal" in="SourceGraphic" in2="BackgroundImageFix" result="shape"/>
<feGaussianBlur stdDeviation="100" result="effect1_foregroundBlur_98_10"/>
</filter>
<linearGradient id="paint0_linear_98_10" x1="-170" y1="149" x2="4765" y2="149" gradientUnits="userSpaceOnUse">
<stop stop-color="#4371E8"/>
<stop offset="1" stop-color="#46A7DE"/>
</linearGradient>
<linearGradient id="paint1_linear_98_10" x1="-170" y1="974" x2="4765" y2="974" gradientUnits="userSpaceOnUse">
<stop stop-color="#4371E8"/>
<stop offset="1" stop-color="#46A7DE"/>
</linearGradient>
<clipPath id="clip0_98_10">
<rect width="4764" height="3155" fill="white"/>
</clipPath>
</defs>
</svg>
