<svg width="4935" height="5888" viewBox="0 0 4935 5888" fill="none" xmlns="http://www.w3.org/2000/svg">
<g clip-path="url(#clip0_100_51)">
<rect width="4935" height="5888" fill="white"/>
<rect x="-468" y="2006.44" width="4933" height="2173.28" fill="#4472E8"/>
<path d="M1562.5 2875.09C1562.5 3504.15 336.404 3700.4 -214.5 3700.4C-765.404 3700.4 -1212 3190.44 -1212 2561.38C-1212 1932.31 -765.404 1422.36 -214.5 1422.36C336.404 1422.36 1562.5 2246.02 1562.5 2875.09Z" fill="#4472E8"/>
<path d="M1766.5 2970.27C1766.5 3599.34 540.404 3795.58 -10.5 3795.58C-561.404 3795.58 -1008 3285.63 -1008 2656.56C-1008 2027.5 -561.404 1517.54 -10.5 1517.54C540.404 1517.54 1766.5 2341.21 1766.5 2970.27Z" fill="#4472E8"/>
<path d="M3899.5 2857.36C3899.5 3486.43 2673.4 3682.67 2122.5 3682.67C1571.6 3682.67 627 3197.16 627 2568.1C627 1939.03 1571.6 1404.63 2122.5 1404.63C2673.4 1404.63 3899.5 2228.3 3899.5 2857.36Z" fill="#4472E8"/>
<path d="M3808.5 2554.71C3808.5 3183.77 2582.4 3380.02 2031.5 3380.02C1480.6 3380.02 536 2894.5 536 2265.44C536 1636.38 1480.6 1101.97 2031.5 1101.97C2582.4 1101.97 3808.5 1925.64 3808.5 2554.71Z" fill="#4472E8"/>
<path d="M6145.5 3995.8C6145.5 4624.86 4919.4 4821.11 4368.5 4821.11C3817.6 4821.11 2873 4335.6 2873 3706.53C2873 3077.47 3817.6 2543.07 4368.5 2543.07C4919.4 2543.07 6145.5 3366.73 6145.5 3995.8Z" fill="#4472E8"/>
<path d="M1268 4028.68C1268 4657.74 525.703 4870 82.9389 4870C-359.825 4870 -1119 4384.49 -1119 3755.42C-1119 3126.36 -359.825 2591.96 82.9389 2591.96C525.703 2591.96 1268 3399.62 1268 4028.68Z" fill="#4472E8"/>
<path d="M3165 3677.14C3165 4306.2 2422.7 4518.46 1979.94 4518.46C1537.18 4518.46 778 4032.94 778 3403.88C778 2774.82 1537.18 2240.41 1979.94 2240.41C2422.7 2240.41 3165 3048.07 3165 3677.14Z" fill="#4472E8"/>
<ellipse cx="3595" cy="1889.45" rx="780" ry="787.479" fill="#4472E8"/>
<ellipse cx="1294" cy="3974.26" rx="780" ry="787.479" fill="#4472E8"/>
<ellipse cx="3004" cy="3974.26" rx="780" ry="787.479" fill="#4472E8"/>
<path d="M5313 2889.08C5313 3518.14 4570.7 3730.4 4127.94 3730.4C3685.18 3730.4 2926 3244.88 2926 2615.82C2926 1986.76 3685.18 1452.35 4127.94 1452.35C4570.7 1452.35 5313 2260.01 5313 2889.08Z" fill="#4472E8"/>
<ellipse cx="524" cy="1804.48" rx="780" ry="787.479" fill="#4472E8"/>
</g>
<defs>
<clipPath id="clip0_100_51">
<rect width="4935" height="5888" fill="white"/>
</clipPath>
</defs>
</svg>
